<svg width="81" height="65" viewBox="0 0 81 65" fill="none" xmlns="http://www.w3.org/2000/svg">
<path d="M62.9985 17.6129C62.5687 16.5027 62.6965 15.5284 63.4206 14.7054C64.1525 13.8708 65.1167 13.537 66.2048 13.8359C67.2503 14.127 67.9008 14.8335 68.1718 15.9166C68.714 18.0671 69.2948 20.206 69.8408 22.3527C69.9376 22.737 69.9879 23.1524 69.9492 23.5444C69.8679 24.3208 69.3877 24.8255 68.6481 25.0467C67.9473 25.2563 67.1263 25.0157 66.7314 24.3635C65.9298 23.0398 65.198 21.6695 64.4468 20.3147C63.9395 19.3986 63.4555 18.4669 63.0024 17.6168L62.9985 17.6129Z" fill="#C1005C"/>
<path d="M53.6045 24.8022C53.1592 23.6764 53.4922 22.4032 54.4409 21.6346C55.3703 20.8776 56.6984 20.7844 57.6858 21.5841C59.6723 23.1912 61.6045 24.8643 63.5329 26.5412C64.1757 27.1002 64.2144 28.0707 63.7381 28.816C63.2696 29.5536 62.4254 29.8719 61.5774 29.5225C60.7217 29.1731 59.9008 28.7384 59.0721 28.3269C57.7401 27.6631 56.4158 26.9838 55.0837 26.3161C54.4099 25.9822 53.8833 25.5125 53.6045 24.7983V24.8022Z" fill="#C1005C"/>
<path d="M76.5978 13.6651C77.593 13.3118 78.5494 13.4787 79.3626 14.2202C80.1951 14.9771 80.5088 15.9515 80.1332 17.0229C79.32 19.3443 78.4604 21.6462 77.5852 23.9443C77.2367 24.8643 76.3384 25.3185 75.4516 25.1127C74.5107 24.8914 73.9376 24.1034 74.046 23.0825C74.3016 20.6757 74.5726 18.2729 74.8631 15.8739C74.9908 14.8296 75.5794 14.0998 76.5939 13.669L76.5978 13.6651Z" fill="#C1005C"/>
<path d="M32.3924 1.92241C34.5377 0.346374 37.3334 -0.0495766 39.9936 0.00476963C42.5919 0.0591158 45.2444 0.517177 47.4748 1.85254C49.7052 3.1879 51.4516 5.51314 51.6064 8.114C51.7846 11.072 49.9065 13.8359 47.5096 15.5672C45.1127 17.2985 41.7555 18.3078 39.3121 19.9731C36.6867 21.7588 34.619 23.1601 35.0565 24.4256C35.4399 25.5281 36.9578 25.5902 38.1001 25.3806C40.3189 24.9768 44.5745 21.7665 46.8165 22.0033C49.0585 22.2401 51.3857 23.6648 51.7962 25.8891C52.1989 28.094 50.5377 30.2601 48.5009 31.184C46.4641 32.1078 44.1408 32.0923 41.9065 32.0535C38.9714 32.0069 35.9897 31.9487 33.1901 31.0636C30.3905 30.1747 27.7535 28.323 26.6267 25.6057C25.4999 22.8884 26.3053 19.2977 28.8571 17.8497C30.1194 17.1355 32.2298 16.3436 33.6238 15.9437C36.1175 15.2295 41.1437 13.7272 42.2047 11.7397C42.801 10.6217 42.9249 8.9486 41.3915 8.73122C39.9472 8.52548 36.4157 10.8003 34.0343 10.6333C32.0478 10.4936 29.8832 9.51924 29.6935 7.48902C29.4921 5.34234 30.6887 3.17238 32.3886 1.9263L32.3924 1.92241Z" fill="#C1005C"/>
<path d="M78.5533 32.0419C78.2125 29.3051 75.3316 27.3953 72.4042 28.0785C71.0295 28.4007 69.6626 28.8626 68.3848 29.4604C66.046 30.5551 63.804 31.8478 61.4768 32.9657C55.6762 35.7568 49.6394 37.3872 43.134 36.4284C43.0024 36.409 42.8707 36.3934 42.7429 36.3857C39.2076 35.7296 35.6412 34.4408 32.8997 33.3073C27.9394 31.25 23.1882 28.521 17.9258 27.4535C15.0294 26.8673 12.0284 26.8285 9.11648 27.2982C7.11067 27.6204 4.88026 27.9348 3.90059 29.9495C3.25393 31.281 3.23069 33.0706 4.16003 34.2778C5.53467 36.0751 8.44659 35.5782 10.3401 35.1318C13.5579 34.371 16.5008 32.6474 19.8038 32.2204C25.5038 31.479 29.1088 36.013 34.104 38.8623C36.0052 39.9453 38.2937 40.8149 40.6945 41.3661C41.0236 41.5447 41.407 41.6728 41.86 41.7388C44.5358 42.1308 47.3276 42.4569 49.9762 42.1075C53.2367 41.6767 56.408 40.5548 59.5987 39.6658C60.7798 39.3359 61.2018 39.6542 61.0043 40.8498C60.834 41.8902 60.6868 42.9383 60.5087 43.9786C60.0131 46.8861 59.3509 56.4161 59.0489 59.3469C58.8049 61.6993 60.5319 63.1977 62.894 63.0929C64.9811 62.9998 66.2164 61.5984 66.499 59.0325C66.9134 55.2554 67.4051 44.852 67.742 41.0711C68.1099 36.9214 67.9666 37.7133 72.0441 37.6007C72.3306 37.6007 73.0199 37.6317 73.7014 37.5968C76.8921 37.426 78.9328 35.0852 78.5533 32.0496V32.0419Z" fill="#C1005C"/>
<path d="M53.3218 49.782C53.3877 49.5258 53.438 49.2657 53.469 49.0056C53.8175 46.1913 51.6026 44.1494 48.861 44.7977C47.1573 45.2014 46.3828 46.4979 46.0149 48.074C45.3567 50.9 44.7603 53.7415 44.1137 56.5714C43.5754 58.9355 42.104 60.2009 40.4041 59.805C38.6693 59.4013 38.1079 57.9456 38.7468 55.3797C39.2579 53.33 39.8658 51.3037 40.3383 49.2463C40.861 46.9754 39.6219 44.9724 37.5115 44.4949C35.5483 44.0524 33.496 45.3722 33.0778 47.581C32.4854 50.6865 32.0711 53.8269 31.7574 55.8222C31.7419 61.1986 33.678 63.7684 37.7439 64.4632C41.6897 65.1387 45.438 64.5525 48.5242 61.6993C49.3644 60.9191 49.7865 60.923 50.4215 61.9788C50.801 62.6077 51.7381 63.3026 52.3848 63.2637C53.3102 63.2094 54.6616 62.728 54.9792 62.0371C55.378 61.1675 55.3044 59.6264 54.7623 58.8501C52.7681 56.0008 52.5087 53.0117 53.3218 49.782Z" fill="#C1005C"/>
<path d="M28.3653 41.4554C27.0372 38.3887 24.7371 36.6186 21.3256 36.409C17.5928 36.1799 14.5686 37.6783 11.9238 40.1627C11.3237 40.7256 10.7118 41.2807 9.99548 41.9406C9.70506 41.4709 9.49983 41.1875 9.34107 40.877C8.22587 38.6682 6.0884 37.8336 4.11743 38.8545C2.1426 39.8755 1.66244 42.0066 2.69633 44.3086C3.18035 45.3838 3.48626 46.6066 3.57145 47.7828C3.82314 51.2998 2.68084 54.5412 1.36428 57.7398C0.620811 59.5488 0.930589 61.2762 2.2394 62.7591C2.33234 62.8639 2.42914 62.9648 2.52595 63.058C3.35073 64.0945 4.68278 64.8437 6.07678 64.964C7.40883 65.0766 9.65472 65.0145 10.1194 63.4268C10.3053 62.7863 10.1852 62.3282 9.8948 61.9905C9.92578 61.9323 9.95288 61.8701 9.98386 61.8119C8.36527 60.4183 7.86575 57.8796 8.77185 55.5C9.20941 54.3471 10.0265 53.5396 10.89 52.7672C11.9897 51.785 12.8377 50.6554 12.7099 49.0871C12.5163 46.7774 13.4882 44.9258 15.0565 43.2993C15.1184 43.2372 16.95 41.665 17.7051 41.2574C17.7051 41.2574 17.8677 41.172 17.949 41.1371C19.5057 40.4539 21.3217 41.2846 21.9839 42.8529C22.1194 43.1751 22.224 43.408 22.2704 43.4934C23.3159 45.446 22.9055 47.3636 21.5696 49.2618C20.9268 50.1741 20.3266 51.1096 19.7883 52.0917C19.3353 52.9224 19.1184 53.7726 19.192 54.6809C19.4011 57.177 18.4214 59.1761 16.6867 60.8376C16.7022 60.8492 16.7138 60.8609 16.7293 60.8686C16.2453 61.5907 16.191 62.4486 17.0894 63.2172C17.1126 63.2366 17.1397 63.2521 17.1668 63.2715C17.9258 64.1721 19.4902 64.2575 20.6441 64.2924C22.1349 64.339 23.5909 63.9741 24.6828 62.9998C24.9229 62.8756 25.1475 62.7164 25.345 62.5145C26.4408 61.7459 27.2617 60.4882 27.5289 58.9199C28.0517 55.8494 28.497 52.7672 29.0081 49.6966C29.4767 46.89 29.5193 44.1106 28.3731 41.4554H28.3653Z" fill="#C1005C"/>
</svg>
