<svg width="17" height="17" viewBox="0 0 17 17" fill="none" xmlns="http://www.w3.org/2000/svg">
<path d="M8.2583 8.5C7.1583 8.5 6.21663 8.10833 5.4333 7.325C4.64997 6.54167 4.2583 5.6 4.2583 4.5C4.2583 3.4 4.64997 2.45833 5.4333 1.675C6.21663 0.891667 7.1583 0.5 8.2583 0.5C9.3583 0.5 10.3 0.891667 11.0833 1.675C11.8666 2.45833 12.2583 3.4 12.2583 4.5C12.2583 5.6 11.8666 6.54167 11.0833 7.325C10.3 8.10833 9.3583 8.5 8.2583 8.5ZM0.258301 16.5V13.7C0.258301 13.1333 0.404134 12.6125 0.695801 12.1375C0.987467 11.6625 1.37497 11.3 1.8583 11.05C2.89163 10.5333 3.94163 10.1458 5.0083 9.8875C6.07497 9.62917 7.1583 9.5 8.2583 9.5C9.3583 9.5 10.4416 9.62917 11.5083 9.8875C12.575 10.1458 13.625 10.5333 14.6583 11.05C15.1416 11.3 15.5291 11.6625 15.8208 12.1375C16.1125 12.6125 16.2583 13.1333 16.2583 13.7V16.5H0.258301ZM2.2583 14.5H14.2583V13.7C14.2583 13.5167 14.2125 13.35 14.1208 13.2C14.0291 13.05 13.9083 12.9333 13.7583 12.85C12.8583 12.4 11.95 12.0625 11.0333 11.8375C10.1166 11.6125 9.19163 11.5 8.2583 11.5C7.32497 11.5 6.39997 11.6125 5.4833 11.8375C4.56663 12.0625 3.6583 12.4 2.7583 12.85C2.6083 12.9333 2.48747 13.05 2.3958 13.2C2.30413 13.35 2.2583 13.5167 2.2583 13.7V14.5ZM8.2583 6.5C8.8083 6.5 9.27913 6.30417 9.6708 5.9125C10.0625 5.52083 10.2583 5.05 10.2583 4.5C10.2583 3.95 10.0625 3.47917 9.6708 3.0875C9.27913 2.69583 8.8083 2.5 8.2583 2.5C7.7083 2.5 7.23747 2.69583 6.8458 3.0875C6.45413 3.47917 6.2583 3.95 6.2583 4.5C6.2583 5.05 6.45413 5.52083 6.8458 5.9125C7.23747 6.30417 7.7083 6.5 8.2583 6.5Z" fill="#C1005C"/>
</svg>
