<svg width="60" height="60" viewBox="0 0 60 60" fill="none" xmlns="http://www.w3.org/2000/svg">
<path d="M41.845 55.709C41.7507 55.709 41.6584 55.6824 41.5786 55.6322C41.4988 55.582 41.4348 55.5102 41.3941 55.4253C41.3533 55.3403 41.3374 55.2455 41.3482 55.1518C41.3589 55.0582 41.396 54.9695 41.455 54.896L41.749 54.529L40.475 55.265C40.3721 55.3245 40.2515 55.3454 40.1346 55.3239C40.0178 55.3025 39.9123 55.2402 39.8373 55.1482C39.7622 55.0561 39.7223 54.9403 39.7248 54.8216C39.7273 54.7028 39.7721 54.5888 39.851 54.5L40.751 53.488L38.489 54.794C38.3747 54.8538 38.2417 54.8671 38.1179 54.8312C37.994 54.7952 37.8889 54.7128 37.8243 54.6012C37.7598 54.4895 37.7409 54.3573 37.7716 54.232C37.8022 54.1067 37.8801 53.9982 37.989 53.929L42.92 51.082C43.0228 51.0225 43.1435 51.0016 43.2603 51.023C43.3772 51.0445 43.4826 51.1068 43.5577 51.1988C43.6328 51.2909 43.6726 51.4067 43.6701 51.5254C43.6676 51.6442 43.6229 51.7582 43.544 51.847L42.644 52.857L43.558 52.33C43.6589 52.2722 43.7769 52.2515 43.8915 52.2713C44.0062 52.2912 44.1103 52.3504 44.186 52.4387C44.2617 52.5271 44.3042 52.6391 44.3062 52.7554C44.3082 52.8717 44.2696 52.9851 44.197 53.076L43.825 53.539C43.9202 53.5321 44.0155 53.5516 44.1003 53.5953C44.1852 53.6391 44.2564 53.7054 44.306 53.787C44.3723 53.9018 44.3902 54.0383 44.3559 54.1664C44.3216 54.2945 44.2378 54.4037 44.123 54.47L42.1 55.642C42.0227 55.6873 41.9345 55.7104 41.845 55.709Z" fill="#83AD3A"/>
<path d="M34.4 59.447C34.3018 59.447 34.2059 59.4181 34.1241 59.364C34.0422 59.3099 33.9782 59.2329 33.9398 59.1426C33.9014 59.0523 33.8904 58.9527 33.9082 58.8562C33.9261 58.7597 33.9719 58.6706 34.04 58.6L34.185 58.449L33.5849 58.794C33.4777 58.8579 33.3505 58.8794 33.2283 58.8543C33.106 58.8291 32.9976 58.7592 32.9243 58.6582C32.851 58.5572 32.8181 58.4324 32.8321 58.3084C32.8461 58.1844 32.906 58.0701 32.9999 57.988L33.874 57.21L32.9669 57.733C32.857 57.7952 32.7276 57.8135 32.6047 57.7842C32.4819 57.7549 32.3747 57.6802 32.3046 57.5751C32.2346 57.47 32.2069 57.3422 32.2272 57.2176C32.2475 57.0929 32.3142 56.9805 32.414 56.903L35.7849 54.338L32.2569 56.375C32.148 56.4386 32.0191 56.4587 31.896 56.4313C31.7729 56.4039 31.6647 56.3309 31.5931 56.2271C31.5215 56.1232 31.4918 55.9962 31.51 55.8713C31.5281 55.7465 31.5928 55.6332 31.6909 55.554L36.2629 51.843L31.363 54.671C31.2536 54.7325 31.1252 54.7507 31.0031 54.7219C30.881 54.6931 30.7742 54.6195 30.7039 54.5157C30.6335 54.4119 30.6048 54.2854 30.6233 54.1613C30.6418 54.0373 30.7063 53.9247 30.804 53.846L34.893 50.626L30.5559 53.126C30.4445 53.1892 30.313 53.2073 30.1887 53.1764C30.0643 53.1455 29.9566 53.068 29.8877 52.96C29.8188 52.8519 29.794 52.7216 29.8184 52.5958C29.8428 52.47 29.9146 52.3584 30.0189 52.284L30.7029 51.803L30.415 51.969C30.3054 52.0312 30.1763 52.0498 30.0537 52.0209C29.931 51.9921 29.8238 51.918 29.7534 51.8135C29.683 51.709 29.6547 51.5818 29.674 51.4573C29.6934 51.3328 29.7591 51.2202 29.8579 51.142L33.3699 48.412L30.8779 49.851C30.7676 49.9163 30.6363 49.9367 30.5113 49.908C30.3863 49.8792 30.2771 49.8035 30.2063 49.6965C30.1356 49.5895 30.1086 49.4595 30.1311 49.3332C30.1535 49.2069 30.2236 49.094 30.3269 49.018L31.9619 47.789L31.2359 48.208C31.1262 48.2698 30.9971 48.2879 30.8745 48.2586C30.752 48.2293 30.645 48.1548 30.575 48.0501C30.505 47.9453 30.4771 47.818 30.497 47.6936C30.5168 47.5692 30.5829 47.4568 30.6819 47.379L31.4029 46.824C31.308 46.8426 31.2097 46.8337 31.1197 46.7982C31.0297 46.7628 30.9517 46.7023 30.8949 46.624C30.8225 46.5236 30.7899 46.4 30.8034 46.277C30.8169 46.1539 30.8755 46.0403 30.9679 45.958L31.568 45.421C31.4554 45.4118 31.3495 45.3641 31.2679 45.286C31.1895 45.2123 31.1369 45.1153 31.118 45.0094C31.0991 44.9035 31.1148 44.7943 31.1629 44.698L31.6429 43.744C31.5934 43.7051 31.5519 43.6569 31.5209 43.602C31.4549 43.4874 31.4369 43.3512 31.4711 43.2234C31.5052 43.0956 31.5886 42.9865 31.7029 42.92L32.331 42.557C32.4242 42.5017 32.5329 42.4783 32.6406 42.4901C32.7484 42.502 32.8494 42.5486 32.9284 42.6228C33.0073 42.697 33.0601 42.795 33.0786 42.9018C33.0971 43.0086 33.0804 43.1185 33.0309 43.215L32.81 43.654L34.9739 42.405C35.0811 42.3431 35.2074 42.3232 35.3284 42.349C35.4495 42.3749 35.5566 42.4447 35.6291 42.545C35.7016 42.6452 35.7344 42.7688 35.7211 42.8919C35.7077 43.0149 35.6493 43.1286 35.5569 43.211L35.275 43.463L37.3419 42.269C37.4518 42.206 37.5815 42.1869 37.7048 42.2158C37.8281 42.2446 37.9359 42.3192 38.0063 42.4245C38.0768 42.5297 38.1047 42.6578 38.0844 42.7828C38.0641 42.9078 37.9971 43.0205 37.8969 43.098L37.323 43.539L38.5999 42.8C38.7102 42.7369 38.8403 42.718 38.9639 42.7473C39.0874 42.7766 39.1953 42.8519 39.2654 42.9578C39.3355 43.0637 39.3627 43.1923 39.3415 43.3175C39.3202 43.4427 39.2521 43.5552 39.151 43.632L37.519 44.858L39.1749 43.903C39.2845 43.8419 39.413 43.8243 39.5349 43.8535C39.6569 43.8827 39.7634 43.9567 39.8333 44.0608C39.9033 44.1648 39.9316 44.2914 39.9126 44.4153C39.8937 44.5393 39.8288 44.6516 39.7309 44.73L36.221 47.459L39.921 45.326C40.0324 45.2628 40.1639 45.2447 40.2882 45.2756C40.4126 45.3065 40.5203 45.384 40.5892 45.492C40.6581 45.6001 40.6829 45.7304 40.6585 45.8562C40.6341 45.982 40.5623 46.0936 40.4579 46.168L39.7719 46.65L40.4169 46.278C40.5263 46.2153 40.6553 46.1963 40.7781 46.2247C40.9009 46.2531 41.0084 46.3268 41.0792 46.431C41.15 46.5353 41.1788 46.6625 41.1598 46.7871C41.1409 46.9117 41.0755 47.0245 40.977 47.103L36.8879 50.324L41.2219 47.824C41.3308 47.7616 41.4592 47.7424 41.5816 47.7702C41.704 47.7981 41.8114 47.8709 41.8825 47.9743C41.9537 48.0777 41.9834 48.2041 41.9656 48.3283C41.9479 48.4526 41.8841 48.5656 41.7869 48.645L37.2159 52.355L42.11 49.53C42.2199 49.4678 42.3493 49.4495 42.4722 49.4788C42.595 49.5081 42.7022 49.5828 42.7723 49.6879C42.8423 49.7931 42.87 49.9208 42.8497 50.0455C42.8294 50.1701 42.7627 50.2825 42.6629 50.36L38.0499 53.87C38.1278 53.9027 38.196 53.9546 38.2483 54.0208C38.3007 54.087 38.3354 54.1654 38.3493 54.2487C38.3632 54.332 38.3557 54.4174 38.3277 54.497C38.2997 54.5766 38.2519 54.6478 38.1889 54.704L37.033 55.733C37.106 55.736 37.1775 55.7548 37.2426 55.7882C37.3077 55.8215 37.3648 55.8685 37.4099 55.926C37.484 56.0211 37.5213 56.1397 37.5149 56.26C37.5084 56.3804 37.4587 56.4944 37.3749 56.581L36.566 57.417C36.6395 57.4624 36.7 57.5261 36.7416 57.6019C36.7832 57.6777 36.8044 57.763 36.8032 57.8494C36.802 57.9358 36.7784 58.0205 36.7347 58.0951C36.691 58.1697 36.6287 58.2317 36.554 58.275L34.6449 59.375C34.571 59.4201 34.4865 59.4449 34.4 59.447Z" fill="#83AD3A"/>
<path d="M25.307 59.47C25.2097 59.4703 25.1145 59.4422 25.0329 59.3891C24.9514 59.3361 24.887 59.2604 24.8479 59.1713C24.8087 59.0822 24.7964 58.9837 24.8124 58.8877C24.8284 58.7917 24.8721 58.7025 24.938 58.631L25.267 58.275L24.293 58.837C24.1853 58.8989 24.0584 58.9185 23.937 58.8919C23.8157 58.8654 23.7085 58.7946 23.6365 58.6933C23.5645 58.5921 23.5327 58.4677 23.5474 58.3443C23.5621 58.2209 23.6222 58.1075 23.716 58.026L24.628 57.235L23.714 57.763C23.6045 57.826 23.4753 57.8453 23.3521 57.8169C23.229 57.7885 23.1212 57.7146 23.0504 57.6099C22.9796 57.5053 22.951 57.3778 22.9704 57.2529C22.9899 57.1281 23.0558 57.0152 23.155 56.937L24.088 56.204L23.234 56.696C23.1249 56.7579 22.9965 56.7766 22.8743 56.7483C22.7521 56.72 22.645 56.6468 22.5742 56.5432C22.5035 56.4396 22.4743 56.3131 22.4924 56.189C22.5105 56.0649 22.5746 55.9521 22.672 55.873L25.843 53.334L22.572 55.223C22.4614 55.2855 22.3311 55.3034 22.2076 55.2733C22.0842 55.2431 21.9768 55.1671 21.9074 55.0606C21.838 54.9542 21.8118 54.8253 21.834 54.7001C21.8562 54.575 21.9252 54.4631 22.027 54.387L24.7 52.432L19.653 55.345C19.5421 55.4072 19.4117 55.4247 19.2883 55.3942C19.1649 55.3636 19.0578 55.2871 18.9887 55.1804C18.9197 55.0736 18.8939 54.9446 18.9166 54.8195C18.9393 54.6944 19.0089 54.5827 19.111 54.507L25.736 49.729L16.646 54.977C16.5334 55.041 16.4003 55.0588 16.2748 55.0267C16.1492 54.9945 16.0411 54.9148 15.9732 54.8045C15.9052 54.6942 15.8828 54.5617 15.9105 54.4352C15.9383 54.3086 16.0141 54.1978 16.122 54.126L18.276 52.708L16.285 53.857C16.1745 53.9213 16.0436 53.9408 15.9192 53.9116C15.7947 53.8823 15.6862 53.8065 15.6159 53.6998C15.5456 53.593 15.5189 53.4633 15.5413 53.3375C15.5636 53.2116 15.6333 53.0991 15.736 53.023L22.318 48.117L17.686 50.792C17.5765 50.8542 17.4474 50.8728 17.3248 50.8439C17.2021 50.8151 17.0949 50.741 17.0245 50.6365C16.9541 50.532 16.9257 50.4048 16.9451 50.2803C16.9645 50.1557 17.0302 50.0432 17.129 49.965L20.638 47.238L19.066 48.145C18.9595 48.2109 18.8321 48.2344 18.709 48.2109C18.586 48.1873 18.4763 48.1184 18.4016 48.0178C18.3269 47.9173 18.2927 47.7923 18.3057 47.6677C18.3188 47.5431 18.3781 47.4279 18.472 47.345L20.481 45.432C20.3821 45.4893 20.2665 45.511 20.1535 45.4934C20.0405 45.4759 19.9369 45.4201 19.8601 45.3354C19.7832 45.2507 19.7377 45.1422 19.7312 45.0281C19.7246 44.9139 19.7574 44.8009 19.824 44.708L20.802 43.349L20.795 43.338C20.7287 43.2232 20.7108 43.0867 20.7451 42.9586C20.7794 42.8305 20.8632 42.7213 20.978 42.655L21.624 42.281C21.7231 42.2238 21.8387 42.2022 21.9517 42.2199C22.0647 42.2377 22.1682 42.2936 22.245 42.3784C22.3217 42.4632 22.3671 42.5718 22.3734 42.686C22.3798 42.8002 22.3469 42.9132 22.28 43.006L21.993 43.406L23.623 42.466C23.7296 42.3989 23.8575 42.3744 23.9813 42.3976C24.1051 42.4207 24.2156 42.4896 24.2907 42.5907C24.3659 42.6917 24.4001 42.8174 24.3866 42.9426C24.3732 43.0678 24.313 43.1833 24.218 43.266L22.2 45.18L26.445 42.729C26.5548 42.6651 26.6848 42.6453 26.8086 42.6737C26.9324 42.7021 27.0407 42.7765 27.1116 42.8819C27.1825 42.9873 27.2106 43.1157 27.1903 43.2411C27.1699 43.3665 27.1026 43.4794 27.002 43.557L23.5 46.282L29.219 42.982C29.3295 42.9177 29.4604 42.8982 29.5849 42.9274C29.7093 42.9567 29.8178 43.0325 29.8881 43.1392C29.9584 43.246 29.9851 43.3757 29.9628 43.5015C29.9405 43.6274 29.8708 43.7399 29.768 43.816L23.187 48.722L32.593 43.291C32.7057 43.227 32.8388 43.2092 32.9643 43.2413C33.0898 43.2735 33.198 43.3532 33.2659 43.4635C33.3338 43.5738 33.3563 43.7063 33.3285 43.8328C33.3008 43.9594 33.2249 44.0702 33.117 44.142L30.957 45.56L33.791 43.924C33.9019 43.8618 34.0324 43.8443 34.1558 43.8748C34.2792 43.9054 34.3863 43.9819 34.4553 44.0886C34.5244 44.1954 34.5502 44.3244 34.5275 44.4495C34.5047 44.5746 34.4352 44.6863 34.333 44.762L27.705 49.542L32.219 46.937C32.3295 46.8763 32.4588 46.8596 32.5811 46.8902C32.7034 46.9207 32.8096 46.9964 32.8785 47.1019C32.9474 47.2075 32.9739 47.3352 32.9526 47.4594C32.9314 47.5837 32.8641 47.6953 32.764 47.772L30.1 49.725L31.055 49.174C31.1641 49.1121 31.2925 49.0934 31.4147 49.1217C31.537 49.15 31.6441 49.2232 31.7148 49.3268C31.7856 49.4304 31.8148 49.5569 31.7967 49.681C31.7786 49.8051 31.7144 49.9179 31.617 49.997L28.44 52.536L29.662 51.836C29.7715 51.7729 29.9008 51.7537 30.0239 51.7821C30.147 51.8105 30.2548 51.8844 30.3256 51.9891C30.3964 52.0937 30.425 52.2212 30.4056 52.3461C30.3862 52.4709 30.3203 52.5838 30.221 52.662L28.91 53.692C29.0116 53.6927 29.1105 53.7243 29.1936 53.7826C29.2767 53.8408 29.3402 53.923 29.3755 54.0182C29.4107 54.1134 29.4162 54.2171 29.3911 54.3155C29.366 54.4139 29.3116 54.5023 29.235 54.569L27.917 55.713C28.0082 55.7243 28.0945 55.7606 28.1665 55.8178C28.2384 55.875 28.2932 55.9509 28.3248 56.0371C28.3564 56.1234 28.3637 56.2167 28.3457 56.3069C28.3277 56.397 28.2853 56.4804 28.223 56.548L27.186 57.674C27.236 57.7139 27.278 57.7627 27.31 57.818C27.376 57.9327 27.3938 58.069 27.3595 58.1968C27.3252 58.3247 27.2416 58.4337 27.127 58.5L25.557 59.407C25.4808 59.4499 25.3945 59.4717 25.307 59.47Z" fill="#8EC140"/>
<path d="M28.937 45.3C28.8298 45.2999 28.7253 45.2653 28.6392 45.2014C28.5531 45.1374 28.4899 45.0474 28.4588 44.9447C28.4278 44.842 28.4306 44.7321 28.4668 44.6311C28.503 44.5302 28.5708 44.4435 28.66 44.384L37.348 38.6L27.333 44.379C27.2206 44.4429 27.0879 44.4608 26.9626 44.429C26.8373 44.3971 26.7292 44.3179 26.661 44.2081C26.5928 44.0982 26.5698 43.9662 26.5969 43.8398C26.6239 43.7134 26.6989 43.6023 26.806 43.53L38.012 36.042L23.6 44.363C23.487 44.4262 23.3539 44.443 23.2287 44.4101C23.1035 44.3771 22.996 44.2969 22.9288 44.1862C22.8616 44.0756 22.8398 43.9432 22.8682 43.8169C22.8966 43.6906 22.9729 43.5802 23.081 43.509L31.673 38.024L22.13 43.532C22.0167 43.5944 21.8835 43.6105 21.7586 43.5768C21.6336 43.5431 21.5266 43.4622 21.46 43.3512C21.3935 43.2402 21.3725 43.1077 21.4016 42.9816C21.4307 42.8555 21.5076 42.7456 21.616 42.675L23.609 41.44L21.366 42.74C21.2534 42.8011 21.1216 42.8167 20.9978 42.7835C20.8741 42.7502 20.7678 42.6707 20.7009 42.5614C20.6341 42.4521 20.6118 42.3213 20.6386 42.1959C20.6654 42.0706 20.7393 41.9604 20.845 41.888L34.737 32.919L19.23 41.866C19.1169 41.9273 18.9844 41.9426 18.8603 41.9087C18.7361 41.8749 18.6298 41.7944 18.5634 41.6841C18.4971 41.5738 18.4758 41.4422 18.5041 41.3167C18.5323 41.1911 18.6079 41.0813 18.715 41.01L27.449 35.542L17.474 41.3C17.3605 41.3686 17.2244 41.3892 17.0957 41.3574C16.9669 41.3256 16.8561 41.244 16.7875 41.1305C16.719 41.017 16.6983 40.8809 16.7301 40.7521C16.7619 40.6234 16.8435 40.5126 16.957 40.444L29.336 32.625L16.361 40.115C16.2482 40.177 16.1158 40.1932 15.9914 40.16C15.867 40.1269 15.7602 40.0471 15.6932 39.9371C15.6261 39.8272 15.6041 39.6957 15.6317 39.5699C15.6592 39.4441 15.7342 39.3339 15.841 39.262L32.952 28.277L15.373 38.426C15.2594 38.4944 15.1232 38.5149 14.9945 38.4829C14.8657 38.451 14.755 38.3691 14.6865 38.2555C14.6181 38.1419 14.5976 38.0057 14.6296 37.8769C14.6616 37.7482 14.7434 37.6374 14.857 37.569L26.926 30.009L13.943 37.5C13.8297 37.5635 13.6962 37.5804 13.5707 37.5472C13.4451 37.5139 13.3374 37.4332 13.2704 37.3219C13.2034 37.2107 13.1822 37.0778 13.2115 36.9513C13.2407 36.8247 13.318 36.7145 13.427 36.644L27.435 27.819L12.535 36.419C12.4212 36.4872 12.2851 36.5073 12.1564 36.4751C12.0278 36.4428 11.9172 36.3608 11.849 36.247C11.7809 36.1332 11.7607 35.997 11.793 35.8684C11.8252 35.7397 11.9072 35.6292 12.021 35.561L22.571 29.001L11.925 35.153C11.8117 35.2165 11.6782 35.2334 11.5527 35.2002C11.4271 35.1669 11.3194 35.0862 11.2524 34.9749C11.1854 34.8637 11.1642 34.7308 11.1935 34.6043C11.2227 34.4777 11.3 34.3675 11.409 34.297L25.2 25.639L11.627 33.477C11.5138 33.5417 11.3798 33.5596 11.2536 33.5269C11.1273 33.4942 11.0189 33.4135 10.9513 33.302C10.8837 33.1904 10.8624 33.0569 10.8919 32.9299C10.9213 32.8029 10.9993 32.6924 11.109 32.622L27.009 22.542L10.635 32C10.5217 32.0635 10.3882 32.0804 10.2627 32.0472C10.1371 32.0139 10.0294 31.9332 9.96241 31.8219C9.89536 31.7107 9.87422 31.5778 9.90345 31.4513C9.93268 31.3247 10.01 31.2145 10.119 31.144L23.1 22.994L9.60003 30.794C9.48644 30.858 9.35235 30.8751 9.22634 30.8416C9.10033 30.8082 8.99237 30.7269 8.92547 30.615C8.85856 30.5031 8.83801 30.3695 8.86819 30.2426C8.89837 30.1158 8.97689 30.0058 9.08703 29.936L15.94 25.7L9.21503 29.584C9.10174 29.6475 8.9682 29.6644 8.84266 29.6312C8.71713 29.5979 8.60945 29.5172 8.54241 29.4059C8.47536 29.2947 8.45422 29.1618 8.48345 29.0353C8.51268 28.9087 8.59 28.7985 8.69903 28.728L20.419 21.387L9.40703 27.744C9.2937 27.8037 9.16178 27.8177 9.03847 27.783C8.91516 27.7483 8.80987 27.6676 8.74433 27.5575C8.67878 27.4475 8.65797 27.3164 8.6862 27.1915C8.71443 27.0665 8.78953 26.9572 8.89603 26.886L12.443 24.705L9.34303 26.493C9.22974 26.5565 9.0962 26.5734 8.97066 26.5402C8.84513 26.5069 8.73745 26.4262 8.67041 26.3149C8.60336 26.2037 8.58222 26.0708 8.61145 25.9443C8.64068 25.8177 8.71799 25.7075 8.82703 25.637L19.719 18.792L8.73503 25.135C8.6221 25.1993 8.48858 25.2171 8.36277 25.1846C8.23695 25.1521 8.12871 25.072 8.06098 24.9611C7.99324 24.8502 7.97134 24.7173 7.99991 24.5905C8.02848 24.4638 8.10527 24.3531 8.21403 24.282L23.062 14.682L8.29303 23.206C8.17944 23.27 8.04535 23.2871 7.91934 23.2536C7.79333 23.2202 7.68537 23.1389 7.61847 23.027C7.55156 22.9151 7.53101 22.7815 7.56119 22.6546C7.59137 22.5278 7.66989 22.4178 7.78003 22.348L9.79403 21.1L8.74503 21.706C8.63188 21.7723 8.4972 21.7915 8.37003 21.7595C8.24286 21.7274 8.13337 21.6467 8.06516 21.5347C7.99695 21.4226 7.97549 21.2883 8.00539 21.1606C8.0353 21.0329 8.11417 20.9221 8.22503 20.852L19.563 13.573L9.42903 19.428C9.31644 19.4981 9.1806 19.5207 9.05139 19.4907C8.92218 19.4607 8.81018 19.3806 8.74003 19.268C8.66988 19.1554 8.64732 19.0196 8.67733 18.8904C8.70733 18.7612 8.78744 18.6491 8.90003 18.579L21.5 10.153L9.22303 17.239C9.11048 17.301 8.97839 17.3173 8.85417 17.2845C8.72994 17.2517 8.62311 17.1723 8.55584 17.0628C8.48856 16.9534 8.46601 16.8222 8.49286 16.6965C8.51971 16.5709 8.59389 16.4604 8.70003 16.388L15.957 11.672L10.921 14.579C10.8094 14.643 10.6774 14.6616 10.5525 14.6308C10.4275 14.6 10.3193 14.5222 10.2502 14.4136C10.1812 14.305 10.1567 14.174 10.1818 14.0478C10.2069 13.9216 10.2797 13.8099 10.385 13.736L19.465 7.412L11.91 11.773C11.7982 11.8352 11.6669 11.8521 11.543 11.8204C11.4191 11.7887 11.312 11.7107 11.2439 11.6024C11.1757 11.4942 11.1517 11.3639 11.1766 11.2385C11.2016 11.113 11.2736 11.0019 11.378 10.928L15.258 8.273C15.1646 8.2608 15.0766 8.22248 15.0041 8.16244C14.9315 8.10241 14.8774 8.0231 14.8479 7.93366C14.8184 7.84421 14.8148 7.74826 14.8375 7.65686C14.8602 7.56545 14.9082 7.48231 14.976 7.417L16.129 6.309C16.0571 6.26246 15.9984 6.19824 15.9584 6.12247C15.9184 6.04671 15.8986 5.96195 15.9008 5.87633C15.903 5.7907 15.9272 5.70708 15.971 5.63348C16.0148 5.55987 16.0768 5.49876 16.151 5.456L18.373 4.173C18.4788 4.10931 18.6044 4.08702 18.7256 4.11041C18.8469 4.13379 18.9552 4.20121 19.0297 4.29967C19.1041 4.39813 19.1396 4.52067 19.1291 4.64369C19.1187 4.76671 19.0631 4.88152 18.973 4.966L18.638 5.287L24.976 1.629C25.0881 1.56398 25.221 1.54497 25.3467 1.57599C25.4725 1.60701 25.5813 1.68562 25.6503 1.79528C25.7192 1.90493 25.7429 2.03707 25.7164 2.16386C25.6899 2.29065 25.6152 2.40219 25.508 2.475L22.737 4.368L29.175 0.650995C29.2866 0.586944 29.4186 0.56839 29.5436 0.599194C29.6685 0.629998 29.7768 0.707789 29.8458 0.816381C29.9149 0.924974 29.9394 1.05601 29.9143 1.18222C29.8892 1.30843 29.8164 1.4201 29.711 1.494L20.63 7.819L31.905 1.31C32.0176 1.24801 32.1497 1.23174 32.2739 1.26454C32.3981 1.29734 32.5049 1.37671 32.5722 1.48617C32.6395 1.59564 32.662 1.7268 32.6352 1.85244C32.6083 1.97809 32.5342 2.08858 32.428 2.161L25.173 6.876L34.112 1.715C34.2243 1.64991 34.3575 1.63105 34.4835 1.66239C34.6094 1.69373 34.7183 1.77283 34.787 1.88295C34.8557 1.99308 34.8789 2.1256 34.8516 2.25251C34.8244 2.37941 34.7489 2.49076 34.641 2.563L22.041 10.992L37.422 2.112C37.5352 2.04569 37.6699 2.02649 37.797 2.05854C37.9242 2.09059 38.0337 2.17132 38.1019 2.28334C38.1701 2.39536 38.1916 2.52969 38.1617 2.65738C38.1318 2.78508 38.0529 2.89591 37.942 2.966L26.608 10.242L38.657 3.286C38.7709 3.21797 38.9072 3.19798 39.0359 3.23042C39.1645 3.26286 39.275 3.34509 39.343 3.459C39.4111 3.57291 39.431 3.70918 39.3986 3.83783C39.3662 3.96648 39.2839 4.07697 39.17 4.145L37.152 5.39L39.716 3.91C39.829 3.84572 39.9625 3.82792 40.0883 3.86038C40.2141 3.89285 40.3223 3.97301 40.3901 4.0839C40.4578 4.1948 40.4797 4.3277 40.4511 4.45446C40.4226 4.58122 40.3458 4.69188 40.237 4.763L25.393 14.363L42.331 4.584C42.4443 4.52052 42.5779 4.50361 42.7034 4.53684C42.8289 4.57008 42.9366 4.65085 43.0037 4.76206C43.0707 4.87328 43.0918 5.00621 43.0626 5.13274C43.0334 5.25927 42.9561 5.36946 42.847 5.44L31.947 12.287L43.477 5.631C43.5905 5.56948 43.7233 5.55421 43.8477 5.58838C43.9722 5.62254 44.0786 5.7035 44.1447 5.81432C44.2109 5.92513 44.2316 6.05723 44.2026 6.18297C44.1735 6.30871 44.097 6.41837 43.989 6.489L40.442 8.669L43.98 6.627C44.0933 6.56352 44.2269 6.54661 44.3524 6.57984C44.4779 6.61308 44.5856 6.69385 44.6527 6.80506C44.7197 6.91628 44.7408 7.04921 44.7116 7.17574C44.6824 7.30227 44.6051 7.41246 44.496 7.483L32.774 14.827L44.896 7.827C45.0095 7.76548 45.1423 7.75021 45.2668 7.78438C45.3912 7.81854 45.4976 7.8995 45.5637 8.01032C45.6299 8.12114 45.6506 8.25323 45.6216 8.37897C45.5925 8.50471 45.516 8.61437 45.408 8.685L38.557 12.914L46.146 8.533C46.2596 8.46754 46.3942 8.44926 46.5211 8.4821C46.648 8.51495 46.7569 8.59628 46.8244 8.7086C46.8919 8.82093 46.9126 8.95526 46.882 9.0827C46.8515 9.21013 46.7721 9.32048 46.661 9.39L33.684 17.535L47.465 9.579C47.5781 9.51681 47.7109 9.50076 47.8355 9.53419C47.9602 9.56763 48.067 9.64797 48.1338 9.7584C48.2006 9.86884 48.2221 10.0008 48.1938 10.1267C48.1655 10.2526 48.0896 10.3627 47.982 10.434L32.082 20.514L48.152 11.236C48.2657 11.1676 48.4019 11.1471 48.5306 11.1791C48.6593 11.211 48.7701 11.2929 48.8385 11.4065C48.907 11.5201 48.9274 11.6563 48.8955 11.7851C48.8635 11.9138 48.7817 12.0246 48.668 12.093L34.868 20.753L48.522 12.871C48.6356 12.807 48.7697 12.7899 48.8957 12.8234C49.0217 12.8568 49.1297 12.9381 49.1966 13.05C49.2635 13.1619 49.284 13.2955 49.2539 13.4224C49.2237 13.5492 49.1452 13.6592 49.035 13.729L38.482 20.29L49.368 14.006C49.4811 13.9438 49.6139 13.9278 49.7385 13.9612C49.8632 13.9946 49.97 14.075 50.0368 14.1854C50.1036 14.2958 50.1251 14.4278 50.0968 14.5537C50.0685 14.6796 49.9926 14.7897 49.885 14.861L35.89 23.679L50.433 15.279C50.5466 15.2135 50.6812 15.1953 50.8081 15.2281C50.935 15.2609 51.0439 15.3423 51.1114 15.4546C51.1789 15.5669 51.1996 15.7013 51.169 15.8287C51.1385 15.9561 51.0591 16.0665 50.948 16.136L38.878 23.7L50.811 16.812C50.9238 16.75 51.0562 16.7338 51.1806 16.7669C51.3051 16.8001 51.4119 16.8799 51.4789 16.9899C51.5459 17.0998 51.5679 17.2313 51.5404 17.3571C51.5129 17.4829 51.4379 17.5931 51.331 17.665L34.217 28.653L50.6 19.2C50.7133 19.1365 50.8469 19.1196 50.9724 19.1528C51.0979 19.1861 51.2056 19.2668 51.2727 19.3781C51.3397 19.4893 51.3608 19.6222 51.3316 19.7487C51.3024 19.8753 51.2251 19.9855 51.116 20.056L38.727 27.876L51.166 20.7C51.2223 20.6661 51.2847 20.6437 51.3497 20.6339C51.4146 20.6241 51.4808 20.6272 51.5446 20.6431C51.6083 20.6589 51.6683 20.6871 51.7212 20.7262C51.774 20.7652 51.8187 20.8142 51.8525 20.8705C51.8864 20.9268 51.9089 20.9892 51.9186 21.0541C51.9284 21.1191 51.9253 21.1853 51.9095 21.2491C51.8936 21.3128 51.8654 21.3728 51.8264 21.4256C51.7873 21.4785 51.7383 21.5231 51.682 21.557L42.956 27.019L51.665 21.991C51.7781 21.9218 51.9141 21.9003 52.0431 21.9314C52.172 21.9624 52.2833 22.0434 52.3525 22.1565C52.4218 22.2696 52.4432 22.4056 52.4122 22.5345C52.3811 22.6635 52.3001 22.7748 52.187 22.844L38.3 31.806L51.228 24.342C51.3413 24.2815 51.4734 24.2669 51.5972 24.3012C51.7209 24.3355 51.8267 24.4161 51.8926 24.5262C51.9585 24.6364 51.9796 24.7677 51.9514 24.8929C51.9231 25.0182 51.8478 25.1278 51.741 25.199L49.741 26.436L50.602 25.936C50.7154 25.8672 50.8515 25.8462 50.9803 25.8777C51.1092 25.9092 51.2202 25.9906 51.289 26.104C51.3579 26.2174 51.3788 26.3535 51.3473 26.4823C51.3158 26.6111 51.2344 26.7222 51.121 26.791L42.521 32.281L50.729 27.543C50.8414 27.4791 50.9742 27.4612 51.0995 27.493C51.2248 27.5249 51.3329 27.6041 51.4011 27.7139C51.4692 27.8238 51.4922 27.9558 51.4652 28.0822C51.4381 28.2086 51.3632 28.3197 51.256 28.392L40.056 35.876L50.409 29.9C50.5215 29.8332 50.6557 29.8131 50.7828 29.8441C50.91 29.8751 51.0199 29.9547 51.089 30.0658C51.1581 30.1769 51.1809 30.3107 51.1525 30.4384C51.1241 30.5662 51.0467 30.6777 50.937 30.749L42.244 36.537L48.253 33.068C48.3639 33.0033 48.4954 32.9838 48.6203 33.0134C48.7452 33.043 48.8539 33.1195 48.924 33.2271C48.994 33.3346 49.02 33.465 48.9966 33.5912C48.9731 33.7174 48.902 33.8298 48.798 33.905L42.211 38.705L47.27 35.785C47.3784 35.7218 47.5064 35.7017 47.6289 35.7285C47.7514 35.7554 47.8593 35.8273 47.9313 35.9299C48.0033 36.0326 48.034 36.1586 48.0175 36.2829C48.001 36.4072 47.9383 36.5207 47.842 36.601L44.011 39.828C44.0186 39.8381 44.0253 39.8488 44.031 39.86C44.0974 39.9747 44.1155 40.1111 44.0814 40.2392C44.0473 40.3672 43.9637 40.4765 43.849 40.543L41.627 41.826C41.5189 41.8878 41.3915 41.907 41.2699 41.8798C41.1483 41.8527 41.0413 41.7811 40.9697 41.6791C40.8981 41.5771 40.8672 41.4521 40.883 41.3285C40.8988 41.205 40.9601 41.0917 41.055 41.011L42.878 39.475L34.564 44.275C34.4532 44.338 34.3225 44.3564 34.1986 44.3262C34.0747 44.2961 33.9671 44.2198 33.8976 44.1129C33.8281 44.006 33.8021 43.8766 33.8248 43.7511C33.8476 43.6257 33.9174 43.5137 34.02 43.438L40.607 38.638L29.187 45.23C29.1113 45.2749 29.0251 45.2991 28.937 45.3Z" fill="#A1CE52"/>
<path d="M29.3001 40.45C29.1938 40.4497 29.0903 40.4156 29.0047 40.3526C28.9191 40.2895 28.8559 40.2009 28.8241 40.0994C28.7923 39.998 28.7937 39.8891 28.828 39.7885C28.8624 39.6879 28.9279 39.6008 29.0151 39.54L36.0631 34.64L26.7291 40.028C26.6171 40.091 26.4852 40.1084 26.3608 40.0768C26.2363 40.0451 26.1288 39.9668 26.0605 39.858C25.9922 39.7492 25.9684 39.6183 25.994 39.4925C26.0196 39.3666 26.0927 39.2554 26.1981 39.182L34.9981 33.216L24.3681 39.352C24.2551 39.4163 24.1216 39.4341 23.9958 39.4016C23.87 39.3691 23.7617 39.289 23.694 39.1781C23.6263 39.0672 23.6044 38.9343 23.6329 38.8075C23.6615 38.6808 23.7383 38.5701 23.8471 38.499L30.3091 34.312L22.7691 38.665C22.6565 38.7303 22.5229 38.7491 22.3967 38.7174C22.2705 38.6858 22.1616 38.6062 22.0931 38.4956C22.0246 38.3849 22.002 38.2519 22.03 38.1248C22.058 37.9978 22.1344 37.8866 22.2431 37.815L32.6601 30.943L21.0171 37.665C20.9038 37.7297 20.7698 37.7476 20.6436 37.7149C20.5174 37.6822 20.4089 37.6015 20.3413 37.49C20.2738 37.3784 20.2524 37.2449 20.2819 37.1179C20.3114 36.9909 20.3893 36.8804 20.4991 36.81L25.7371 33.495L19.8881 36.872C19.7753 36.9419 19.6395 36.9641 19.5104 36.9338C19.3812 36.9036 19.2694 36.8232 19.1996 36.7105C19.1297 36.5978 19.1074 36.4619 19.1377 36.3328C19.168 36.2037 19.2483 36.0919 19.3611 36.022L32.5081 27.322L18.3291 35.506C18.2154 35.5744 18.0792 35.5949 17.9505 35.5629C17.8218 35.5309 17.711 35.4491 17.6426 35.3355C17.5741 35.2218 17.5537 35.0857 17.5856 34.9569C17.6176 34.8282 17.6994 34.7174 17.8131 34.649L22.8681 31.477L17.4681 34.594C17.3547 34.6628 17.2186 34.6838 17.0898 34.6523C16.9609 34.6208 16.8499 34.5394 16.7811 34.426C16.7122 34.3126 16.6913 34.1765 16.7228 34.0477C16.7543 33.9189 16.8357 33.8078 16.9491 33.739L25.7151 28.16L16.5581 33.447C16.4451 33.5113 16.3116 33.5291 16.1858 33.4966C16.06 33.4641 15.9517 33.384 15.884 33.2731C15.8163 33.1622 15.7944 33.0293 15.8229 32.9025C15.8515 32.7758 15.9283 32.6651 16.0371 32.594L27.1141 25.464L15.6501 32.083C15.5371 32.1473 15.4036 32.1651 15.2778 32.1326C15.152 32.1001 15.0437 32.02 14.976 31.9091C14.9083 31.7982 14.8864 31.6653 14.9149 31.5385C14.9435 31.4118 15.0203 31.3011 15.1291 31.23L26.6701 23.781L14.8701 30.594C14.7571 30.6572 14.624 30.674 14.4988 30.6411C14.3736 30.6081 14.2661 30.5279 14.1988 30.4172C14.1316 30.3066 14.1099 30.1742 14.1383 30.0479C14.1667 29.9216 14.2429 29.8112 14.3511 29.74L24.3611 23.329L14.2701 29.155C14.1578 29.217 14.026 29.2335 13.9019 29.201C13.7778 29.1685 13.6709 29.0896 13.6034 28.9806C13.5358 28.8716 13.5128 28.7408 13.5389 28.6152C13.5651 28.4896 13.6386 28.3789 13.7441 28.306L27.4091 19.276L13.7001 27.19C13.5872 27.2512 13.4551 27.2666 13.3311 27.233C13.2072 27.1995 13.1009 27.1195 13.0343 27.0097C12.9677 26.8999 12.9459 26.7687 12.9734 26.6433C13.0009 26.5179 13.0756 26.4078 13.1821 26.336L21.0531 21.315L13.4361 25.715C13.3225 25.7805 13.1878 25.7987 13.061 25.7659C12.9341 25.733 12.8252 25.6517 12.7577 25.5394C12.6902 25.4271 12.6695 25.2927 12.7001 25.1653C12.7306 25.0379 12.81 24.9275 12.9211 24.858L16.2871 22.745L13.3121 24.46C13.1988 24.5291 13.0628 24.5504 12.9338 24.5191C12.8049 24.4879 12.6936 24.4067 12.6246 24.2935C12.5555 24.1803 12.5342 24.0442 12.5654 23.9153C12.5966 23.7863 12.6778 23.6751 12.7911 23.606L20.1911 18.844L13.2911 22.825C13.1784 22.889 13.0453 22.9068 12.9198 22.8747C12.7943 22.8425 12.6861 22.7628 12.6182 22.6525C12.5502 22.5421 12.5278 22.4097 12.5556 22.2832C12.5833 22.1566 12.6592 22.0458 12.7671 21.974L20.8471 16.7L13.4661 20.961C13.3534 21.025 13.2203 21.0428 13.0948 21.0107C12.9693 20.9785 12.8611 20.8988 12.7932 20.7885C12.7252 20.6781 12.7028 20.5457 12.7306 20.4192C12.7583 20.2926 12.8342 20.1818 12.9421 20.11L19.2001 16.016L13.8471 19.105C13.7357 19.1667 13.605 19.1835 13.4816 19.1521C13.3582 19.1208 13.2514 19.0435 13.1831 18.9361C13.1147 18.8287 13.0899 18.6992 13.1137 18.5742C13.1374 18.4491 13.208 18.3378 13.3111 18.263L21.7831 12.345L14.8341 16.356C14.7236 16.4167 14.5943 16.4334 14.472 16.4028C14.3497 16.3722 14.2435 16.2966 14.1746 16.1911C14.1057 16.0855 14.0792 15.9578 14.1004 15.8336C14.1217 15.7093 14.189 15.5977 14.2891 15.521L20.1741 11.215L16.7091 13.215C16.5986 13.2778 16.4684 13.2962 16.3449 13.2664C16.2214 13.2367 16.1138 13.1611 16.0441 13.0549C15.9743 12.9487 15.9476 12.82 15.9693 12.6948C15.991 12.5696 16.0596 12.4574 16.1611 12.381L18.9001 10.349C18.8308 10.301 18.7748 10.2362 18.7373 10.1608C18.6997 10.0853 18.6819 10.0016 18.6854 9.91737C18.6888 9.83316 18.7136 9.7512 18.7572 9.6791C18.8009 9.60701 18.8621 9.54712 18.9351 9.505L23.9001 6.638C24.0105 6.57521 24.1407 6.55682 24.2642 6.58655C24.3877 6.61629 24.4953 6.69192 24.565 6.79809C24.6348 6.90426 24.6615 7.03301 24.6398 7.15818C24.6181 7.28334 24.5495 7.39555 24.4481 7.472L23.7181 8.015L27.6851 5.725C27.7957 5.66254 27.926 5.64456 28.0495 5.67472C28.1729 5.70489 28.2803 5.78092 28.3497 5.88738C28.4191 5.99384 28.4453 6.12272 28.4231 6.24785C28.4009 6.37297 28.3319 6.48494 28.2301 6.561L22.3451 10.866L31.3301 5.677C31.4417 5.61294 31.5737 5.59439 31.6986 5.62519C31.8236 5.656 31.9318 5.73379 32.0009 5.84238C32.0699 5.95097 32.0944 6.08201 32.0693 6.20822C32.0442 6.33443 31.9714 6.4461 31.8661 6.52L23.3921 12.439L34.2071 6.2C34.3196 6.13801 34.4517 6.12174 34.5759 6.15454C34.7001 6.18734 34.807 6.26671 34.8742 6.37617C34.9415 6.48564 34.9641 6.6168 34.9372 6.74245C34.9104 6.86809 34.8362 6.97858 34.7301 7.051L28.4751 11.14L36.0001 6.794C36.1129 6.72837 36.247 6.70948 36.3735 6.74137C36.5001 6.77326 36.6092 6.85339 36.6775 6.96465C36.7458 7.07591 36.7679 7.20946 36.739 7.33678C36.7102 7.46409 36.6327 7.57507 36.5231 7.646L28.4611 12.915L37.7001 7.581C37.7561 7.54679 37.8184 7.52396 37.8833 7.51381C37.9482 7.50366 38.0145 7.5064 38.0783 7.52186C38.1421 7.53732 38.2023 7.56521 38.2554 7.60392C38.3084 7.64263 38.3534 7.69142 38.3876 7.7475C38.4218 7.80357 38.4446 7.86583 38.4547 7.93073C38.4649 7.99563 38.4622 8.06189 38.4467 8.12573C38.4312 8.18957 38.4034 8.24974 38.3646 8.3028C38.3259 8.35587 38.2771 8.40079 38.2211 8.435L30.8121 13.2L39.1071 8.411C39.2207 8.34257 39.3569 8.32209 39.4856 8.35407C39.6144 8.38604 39.7251 8.46785 39.7936 8.5815C39.862 8.69514 39.8825 8.83131 39.8505 8.96006C39.8185 9.0888 39.7367 9.19957 39.6231 9.268L36.2521 11.384L40.1341 9.144C40.247 9.08282 40.3791 9.06741 40.503 9.10098C40.6269 9.13454 40.7332 9.2145 40.7998 9.32429C40.8664 9.43407 40.8882 9.56527 40.8607 9.69069C40.8332 9.81612 40.7585 9.92615 40.6521 9.998L32.7841 15.017L41.2711 10.117C41.3836 10.0517 41.5172 10.0329 41.6434 10.0646C41.7696 10.0962 41.8786 10.1758 41.947 10.2864C42.0155 10.3971 42.0381 10.5301 42.0101 10.6571C41.9821 10.7842 41.9057 10.8954 41.7971 10.967L28.1351 20L42.6871 11.6C42.7998 11.5397 42.9313 11.5248 43.0546 11.5584C43.178 11.5921 43.2837 11.6717 43.3502 11.7809C43.4166 11.8901 43.4387 12.0206 43.4119 12.1456C43.3851 12.2706 43.3115 12.3806 43.2061 12.453L33.2001 18.859L43.6461 12.829C43.759 12.7647 43.8925 12.7469 44.0183 12.7794C44.1441 12.8118 44.2524 12.892 44.3201 13.0029C44.3878 13.1138 44.4097 13.2467 44.3812 13.3735C44.3526 13.5002 44.2758 13.6109 44.1671 13.682L32.6231 21.132L44.5431 14.251C44.656 14.1867 44.7895 14.1689 44.9153 14.2014C45.0411 14.2338 45.1494 14.314 45.2171 14.4249C45.2848 14.5358 45.3067 14.6687 45.2782 14.7955C45.2496 14.9222 45.1728 15.0329 45.0641 15.104L33.9881 22.229L45.2721 15.715C45.3851 15.6518 45.5182 15.635 45.6434 15.6679C45.7685 15.7009 45.8761 15.7811 45.9433 15.8918C46.0105 16.0024 46.0322 16.1348 46.0038 16.2611C45.9755 16.3874 45.8992 16.4978 45.7911 16.569L37.0221 22.15L45.8081 17.078C45.9216 17.0125 46.0563 16.9943 46.1831 17.0271C46.31 17.0599 46.4189 17.1413 46.4864 17.2536C46.5539 17.3659 46.5746 17.5003 46.544 17.6277C46.5135 17.7551 46.4342 17.8655 46.3231 17.935L41.2711 21.105L46.1711 18.279C46.2836 18.2137 46.4172 18.1949 46.5434 18.2266C46.6696 18.2582 46.7786 18.3378 46.847 18.4484C46.9155 18.5591 46.9381 18.6921 46.9101 18.8191C46.8821 18.9462 46.8057 19.0574 46.6971 19.129L33.5471 27.829L46.5701 20.31C46.6836 20.2413 46.8197 20.2205 46.9486 20.2522C47.0774 20.2839 47.1884 20.3655 47.2571 20.479C47.3258 20.5925 47.3465 20.7287 47.3148 20.8575C47.2831 20.9863 47.2016 21.0973 47.0881 21.166L41.8601 24.474L46.6981 21.681C46.8103 21.619 46.9422 21.6025 47.0662 21.635C47.1903 21.6675 47.2972 21.7464 47.3647 21.8554C47.4323 21.9644 47.4554 22.0952 47.4292 22.2208C47.403 22.3464 47.3296 22.4571 47.2241 22.53L36.8001 29.407L46.6761 23.707C46.789 23.6427 46.9225 23.6249 47.0483 23.6574C47.1741 23.6898 47.2824 23.77 47.3501 23.8809C47.4178 23.9918 47.4397 24.1247 47.4112 24.2515C47.3826 24.3782 47.3058 24.4889 47.1971 24.56L40.7271 28.752L46.4741 25.435C46.5859 25.3737 46.717 25.3574 46.8405 25.3896C46.9639 25.4217 47.0704 25.4999 47.1381 25.608C47.2059 25.7161 47.2297 25.846 47.2048 25.9711C47.1799 26.0962 47.1081 26.2071 47.0041 26.281L38.2041 32.247L45.8831 27.814C45.9946 27.7517 46.1258 27.7344 46.2496 27.7658C46.3735 27.7971 46.4807 27.8747 46.5491 27.9826C46.6176 28.0904 46.6422 28.2204 46.6178 28.3459C46.5934 28.4713 46.5219 28.5826 46.4181 28.657L39.3781 33.551L44.7781 30.433C44.8878 30.3704 45.0171 30.3516 45.1401 30.3805C45.2631 30.4093 45.3706 30.4836 45.441 30.5885C45.5114 30.6934 45.5395 30.821 45.5197 30.9458C45.4999 31.0705 45.4335 31.1831 45.3341 31.261L39.9901 35.39L42.1351 34.152C42.2498 34.0867 42.3858 34.0695 42.5132 34.1041C42.6406 34.1387 42.7492 34.2223 42.8152 34.3367C42.8812 34.451 42.8993 34.5868 42.8656 34.7145C42.8318 34.8421 42.749 34.9512 42.6351 35.018L34.0521 39.973C33.9423 40.0356 33.813 40.0544 33.69 40.0255C33.567 39.9967 33.4595 39.9223 33.3891 39.8175C33.3187 39.7126 33.2906 39.585 33.3104 39.4602C33.3303 39.3355 33.3966 39.2229 33.4961 39.145L38.8361 35.019L29.5431 40.384C29.4692 40.4267 29.3854 40.4495 29.3001 40.45Z" fill="#EAF4F4"/>
<path d="M32.382 25.368C32.2821 25.368 32.1844 25.3381 32.1017 25.2821C32.0189 25.2261 31.9548 25.1466 31.9177 25.0538C31.8806 24.961 31.8721 24.8593 31.8934 24.7616C31.9146 24.664 31.9647 24.5749 32.037 24.506L35.1 21.6L28.859 25.2C28.7471 25.264 28.6149 25.2822 28.4899 25.2511C28.3649 25.2199 28.2567 25.1417 28.188 25.0327C28.1192 24.9237 28.0952 24.7924 28.1209 24.6661C28.1466 24.5399 28.2201 24.4284 28.326 24.355L28.844 24L28.37 24.273C28.2598 24.3362 28.1297 24.355 28.0061 24.3257C27.8825 24.2964 27.7747 24.2211 27.7046 24.1152C27.6344 24.0094 27.6072 23.8807 27.6285 23.7555C27.6497 23.6303 27.7179 23.5178 27.819 23.441L33.019 19.528L28.284 22.261C28.1728 22.3244 28.0415 22.3428 27.9171 22.3123C27.7928 22.2818 27.6849 22.2048 27.6157 22.0971C27.5464 21.9894 27.5212 21.8592 27.545 21.7335C27.5689 21.6077 27.6401 21.4958 27.744 21.421L29.425 20.221L28.384 20.821C28.2731 20.8832 28.1427 20.9008 28.0193 20.8702C27.8959 20.8396 27.7887 20.7632 27.7197 20.6564C27.6506 20.5496 27.6249 20.4206 27.6476 20.2955C27.6703 20.1704 27.7398 20.0587 27.842 19.983L28.542 19.483C28.4366 19.5131 28.3241 19.5078 28.222 19.4677C28.12 19.4277 28.0339 19.3552 27.977 19.2614C27.9202 19.1676 27.8958 19.0578 27.9075 18.9487C27.9192 18.8397 27.9665 18.7375 28.042 18.658L30.169 16.44C30.0521 16.4819 29.9237 16.4788 29.8089 16.4313C29.6942 16.3837 29.6012 16.2952 29.5482 16.1828C29.4951 16.0705 29.4858 15.9425 29.522 15.8236C29.5582 15.7048 29.6373 15.6037 29.744 15.54L32.695 13.84C32.7992 13.7798 32.9215 13.7592 33.0397 13.7819C33.1578 13.8047 33.2638 13.8692 33.3382 13.9638C33.4126 14.0583 33.4503 14.1765 33.4446 14.2967C33.4389 14.4169 33.39 14.531 33.307 14.618L31.195 16.818L36.5 13.747C36.6109 13.6848 36.7413 13.6673 36.8647 13.6978C36.9881 13.7284 37.0953 13.8049 37.1643 13.9116C37.2334 14.0184 37.2591 14.1474 37.2364 14.2725C37.2137 14.3976 37.1442 14.5094 37.042 14.585L36.456 15.008L38.072 14.075C38.1832 14.0116 38.3145 13.9932 38.4389 14.0237C38.5632 14.0542 38.6711 14.1312 38.7403 14.2389C38.8096 14.3466 38.8349 14.4768 38.811 14.6026C38.7871 14.7283 38.7159 14.8402 38.612 14.915L36.929 16.115L39.629 14.559C39.7392 14.4959 39.8693 14.477 39.9929 14.5063C40.1165 14.5356 40.2243 14.6109 40.2944 14.7168C40.3646 14.8227 40.3918 14.9513 40.3705 15.0765C40.3493 15.2017 40.2811 15.3142 40.18 15.391L34.98 19.305L39.3 16.808C39.4116 16.7465 39.5425 16.73 39.6659 16.7618C39.7893 16.7936 39.8959 16.8712 39.964 16.979C40.032 17.0867 40.0564 17.2164 40.032 17.3415C40.0077 17.4666 39.9365 17.5776 39.833 17.652L38.52 18.552C38.6183 18.5557 38.7134 18.5882 38.7933 18.6456C38.8732 18.7031 38.9343 18.7828 38.9691 18.8748C39.0039 18.9668 39.0108 19.0671 38.9889 19.163C38.967 19.2589 38.9173 19.3462 38.846 19.414L35.783 22.323L36.643 21.823C36.7573 21.7632 36.8902 21.7499 37.0141 21.7859C37.1379 21.8218 37.2431 21.9042 37.3077 22.0158C37.3722 22.1275 37.3911 22.2598 37.3604 22.385C37.3297 22.5103 37.2518 22.6188 37.143 22.688L32.632 25.288C32.5575 25.337 32.4711 25.3646 32.382 25.368Z" fill="#8EC140"/>
<path d="M8.22103 25.851C8.72103 27.206 7.92103 28.561 8.33603 29.936C8.74703 31.281 10.085 31.862 10.582 33.136C11.046 34.322 10.826 35.457 11.738 36.491C12.581 37.446 13.938 37.585 14.702 38.622C15.357 39.505 15.537 40.493 16.495 41.171C17.801 42.071 19.525 41.596 20.644 42.81C18.624 47.503 9.73103 58.719 21.532 54.862C24.29 62.882 27.467 59.332 29.932 53.622C32.295 59.306 35.532 62.775 38.323 54.944C50.357 58.462 41.53 47.47 39.387 42.617C42.414 41.16 43.568 41.977 45.303 38.36C46.138 37.282 47.645 37.141 48.476 35.968C49.431 34.62 48.995 32.945 50.225 31.729C52.297 30.276 51.539 27.961 51.686 25.868C52.316 24.592 53.169 23.021 52.486 21.555C50.811 19.479 52.703 16.768 50.953 14.755C50.3871 14.3237 49.9254 13.7707 49.6022 13.1368C49.279 12.5029 49.1026 11.8044 49.086 11.093C48.522 8.47301 45.144 8.49301 44.514 5.89301C43.614 4.26001 41.727 4.26901 40.168 3.79301C39.602 3.56801 39.308 2.90201 38.732 2.78501L38.882 2.66301C38.3322 2.14062 37.6552 1.77124 36.9184 1.59159C36.1816 1.41195 35.4106 1.4283 34.682 1.63901C32.463 1.93901 30.06 -0.631994 28.004 1.21101C25.954 2.25801 23.453 0.705007 21.584 2.47701C20.364 4.27701 18.338 4.00801 16.607 4.96201C15.581 5.67701 15.407 6.71601 14.69 7.64701C13.929 8.63001 12.553 8.80401 11.726 9.77801C10.779 10.895 11.095 12.162 10.473 13.373C8.46103 15.6 7.96203 16.331 8.42603 19.407C7.72103 22.069 6.47903 23.08 8.22103 25.851ZM27.241 56.109C24.253 62.973 24.188 53.553 21.985 53.892C11.658 57.586 20.032 47.826 21.56 43.719C22.86 44.837 24.53 44.425 26.049 44.284C28 44.754 30.085 46.319 32.049 44.853H31.649C32.109 44.881 33.187 44.253 33.405 44.29C31.351 48.242 29.3 52.168 27.241 56.109ZM41 48.865C46.8 59.101 39.688 52.509 37.23 54.242C34.359 62.788 33.302 56.202 30.765 52.042L34.75 44.411C35.3575 44.5424 35.9865 44.5374 36.5917 44.3963C37.197 44.2552 37.7633 43.9815 38.25 43.595L41 48.865ZM9.78703 16.175C10.087 15.209 10.869 14.76 11.429 14.048C12.211 13.053 12.056 11.995 12.459 10.876C12.936 9.54901 14.114 9.34501 15.13 8.61201C15.8626 7.94348 16.4424 7.12488 16.83 6.21201C17.63 4.92001 18.918 5.13301 20.167 4.70001C23.742 2.41601 22.191 2.22201 26.867 2.49401C27.3303 2.42734 27.7755 2.26818 28.176 2.02601C28.197 2.00901 27.576 2.26001 27.991 2.00901C30.494 0.529007 32.28 3.25501 34.9 2.41901C36.434 2.18301 37.407 3.01901 38.317 4.04101C39.034 4.99201 40.562 4.80401 41.534 5.14101C43.006 5.64101 43.134 6.87201 43.962 7.96901C47.101 10.426 47.185 9.38801 48.152 13.648C51.766 17.571 49.528 16.948 50.552 21.012C51.207 22.294 51.552 23.432 50.8 24.795C49.395 26.88 51.29 29.657 49.111 31.425C47.198 32.843 48.287 35.816 45.911 36.83C43.39 37.559 43.654 40.746 40.938 41.056C39.7308 41.1751 38.6181 41.762 37.838 42.691C36.357 44.603 33.843 42.663 31.993 43.891C31.715 44.003 31.7834 44.0347 32.198 43.986C29.763 45.259 28.593 43.536 26.23 43.414C25.5306 43.6518 24.7789 43.6913 24.0584 43.528C23.3379 43.3647 22.6766 43.0051 22.148 42.489C22.138 42.375 22.043 42.304 21.906 42.268L21.966 42.209C18.577 39.745 18.166 42.338 15.603 37.546C12.671 35.916 12.61 35.61 11.883 32.404C11.331 31.294 10.168 30.775 9.78303 29.548C9.39803 28.304 10.092 27.103 9.78303 25.848C9.51103 24.734 8.67603 23.981 8.72703 22.731C8.77103 21.671 9.50503 20.947 9.76003 19.968C10.1 18.684 9.38803 17.442 9.78703 16.175Z" fill="#262626"/>
<path d="M33.72 39.831C50.926 36.238 52.625 11.8 35.65 6.48202C6.55397 -0.207984 3.78397 44.135 33.72 39.831ZM15.926 14.482C24.051 -0.280984 46.535 6.89302 46.275 23.2C44.013 51.554 3.99997 39.317 15.926 14.482Z" fill="#262626"/>
<path d="M25.268 34.064C25.161 34.815 26.716 34.524 26.729 33.937C26.5928 30.9856 27.2306 28.0499 28.579 25.421C38.436 26.629 36.579 21.39 41.513 16.11C42.498 14.935 40.018 14.35 39.265 14.128C32 11.21 25.428 17.173 27.554 24.661C26.8625 25.9108 26.314 27.2345 25.919 28.607C25.841 27.177 20.6 14.281 19.334 18.307C21.7638 21.5581 23.5282 25.2568 24.526 29.191C24.9666 30.78 25.2157 32.4159 25.268 34.064ZM28.839 20.333C29.193 14.17 35.666 13.489 40.206 15.771C35.935 19.884 37.286 25.799 29.154 24.344C30.5302 22.0122 32.3349 19.9615 34.473 18.3C35.263 15.19 29.024 21.848 28.759 22.7C28.72 21.9102 28.7468 21.1184 28.839 20.333Z" fill="#262626"/>
</svg>
