<svg width="17" height="17" viewBox="0 0 17 17" fill="none" xmlns="http://www.w3.org/2000/svg">
<path d="M6.1758 12.335C4.52193 12.335 3.12222 11.7622 1.97665 10.6166C0.831084 9.47108 0.258301 8.07136 0.258301 6.4175C0.258301 4.76363 0.831084 3.36392 1.97665 2.21835C3.12222 1.07278 4.52193 0.5 6.1758 0.5C7.82966 0.5 9.22938 1.07278 10.3749 2.21835C11.5205 3.36392 12.0933 4.76363 12.0933 6.4175C12.0933 7.08511 11.9871 7.71479 11.7747 8.30654C11.5622 8.89829 11.2739 9.42176 10.9098 9.87696L16.0079 14.9751C16.1748 15.142 16.2583 15.3544 16.2583 15.6124C16.2583 15.8703 16.1748 16.0827 16.0079 16.2496C15.841 16.4165 15.6286 16.5 15.3707 16.5C15.1127 16.5 14.9003 16.4165 14.7334 16.2496L9.63526 11.1515C9.18006 11.5156 8.65659 11.8039 8.06484 12.0164C7.47309 12.2288 6.84341 12.335 6.1758 12.335ZM6.1758 10.5142C7.31378 10.5142 8.28106 10.1159 9.07765 9.31934C9.87423 8.52276 10.2725 7.55548 10.2725 6.4175C10.2725 5.27952 9.87423 4.31223 9.07765 3.51565C8.28106 2.71906 7.31378 2.32077 6.1758 2.32077C5.03782 2.32077 4.07053 2.71906 3.27395 3.51565C2.47736 4.31223 2.07907 5.27952 2.07907 6.4175C2.07907 7.55548 2.47736 8.52276 3.27395 9.31934C4.07053 10.1159 5.03782 10.5142 6.1758 10.5142Z" fill="#C1005C"/>
</svg>
