<svg width="17" height="21" viewBox="0 0 17 21" fill="none" xmlns="http://www.w3.org/2000/svg">
<path d="M2.2583 20.5C1.7083 20.5 1.23747 20.3042 0.845801 19.9125C0.454134 19.5208 0.258301 19.05 0.258301 18.5V6.5C0.258301 5.95 0.454134 5.47917 0.845801 5.0875C1.23747 4.69583 1.7083 4.5 2.2583 4.5H4.2583C4.2583 3.4 4.64997 2.45833 5.4333 1.675C6.21663 0.891667 7.1583 0.5 8.2583 0.5C9.3583 0.5 10.3 0.891667 11.0833 1.675C11.8666 2.45833 12.2583 3.4 12.2583 4.5H14.2583C14.8083 4.5 15.2791 4.69583 15.6708 5.0875C16.0625 5.47917 16.2583 5.95 16.2583 6.5V18.5C16.2583 19.05 16.0625 19.5208 15.6708 19.9125C15.2791 20.3042 14.8083 20.5 14.2583 20.5H2.2583ZM2.2583 18.5H14.2583V6.5H12.2583V8.5C12.2583 8.78333 12.1625 9.02083 11.9708 9.2125C11.7791 9.40417 11.5416 9.5 11.2583 9.5C10.975 9.5 10.7375 9.40417 10.5458 9.2125C10.3541 9.02083 10.2583 8.78333 10.2583 8.5V6.5H6.2583V8.5C6.2583 8.78333 6.16247 9.02083 5.9708 9.2125C5.77913 9.40417 5.54163 9.5 5.2583 9.5C4.97497 9.5 4.73747 9.40417 4.5458 9.2125C4.35413 9.02083 4.2583 8.78333 4.2583 8.5V6.5H2.2583V18.5ZM6.2583 4.5H10.2583C10.2583 3.95 10.0625 3.47917 9.6708 3.0875C9.27913 2.69583 8.8083 2.5 8.2583 2.5C7.7083 2.5 7.23747 2.69583 6.8458 3.0875C6.45413 3.47917 6.2583 3.95 6.2583 4.5Z" fill="#C1005C"/>
</svg>
